# Blender v2.76 (sub 0) OBJ File: 'ExportAll.blend'
# www.blender.org
mtllib Large TV Set.mtl
o polygon2.168
v -1.500000 2.500000 0.000000
v -1.500000 0.000000 0.000000
v -1.500000 2.500000 1.000000
v -1.500000 -0.000000 1.000000
v 1.500000 -0.000000 1.000000
v 1.500000 0.000000 0.000000
v 1.500000 2.500000 1.000000
v 1.500000 2.500000 0.000000
v 1.500000 2.500000 0.000000
v -1.500000 2.500000 0.000000
v 1.500000 2.500000 1.000000
v -1.500000 2.500000 1.000000
vt 0.000000 0.000000
vt 0.000000 -1.000000
vt 0.500000 0.000000
vt 0.500000 -1.000000
vt 1.000000 -1.000000
vt 1.000000 0.000000
vn -1.000000 0.000000 0.000000
vn 1.000000 0.000000 0.000000
vn 0.000000 1.000000 0.000000
usemtl Material1318
s 1
f 1/1/1 2/2/1 3/3/1
f 2/2/1 4/4/1 3/3/1
f 5/2/2 6/4/2 7/1/2
f 6/4/2 8/3/2 7/1/2
f 9/5/3 10/6/3 11/4/3
f 10/6/3 12/3/3 11/4/3
o polygon4.110
v 1.199951 2.300049 1.000000
v 1.500000 2.500000 1.000000
v -1.199951 2.300049 1.000000
v -1.500000 2.500000 1.000000
v -1.199951 0.300049 1.000000
v -1.500000 -0.000000 1.000000
v 1.199951 0.300049 1.000000
v 1.500000 -0.000000 1.000000
v 1.199951 2.300049 1.000000
v 1.500000 2.500000 1.000000
v 1.000000 0.000000 -1.000000
v -1.000000 0.000000 -1.000000
v 1.000000 1.500000 -1.000000
v -1.000000 1.500000 -1.000000
vt 0.898438 -0.091797
vt 0.992188 -0.013672
vt 0.101562 -0.091797
vt 0.007812 -0.013672
vt 0.101562 -0.861328
vt 0.007812 -0.976562
vt 0.898438 -0.861328
vt 0.992188 -0.976562
vt 0.833984 -0.808594
vt 0.150391 -0.808594
vt 0.833984 -0.136719
vt 0.150391 -0.136719
vn 0.000000 0.000000 1.000000
vn 0.000000 0.000000 -1.000000
vn -0.000000 0.285000 -0.958500
vn 0.000000 0.569900 -0.821700
usemtl Material1319.001
s 1
f 13/7/4 14/8/4 15/9/4
f 14/8/4 16/10/4 15/9/4
f 15/9/4 16/10/4 17/11/4
f 16/10/4 18/12/4 17/11/4
f 17/11/4 18/12/4 19/13/4
f 18/12/4 20/14/4 19/13/4
f 19/13/4 20/14/4 21/7/4
f 20/14/4 22/8/4 21/7/4
f 23/15/5 24/16/5 25/17/6
f 24/16/5 26/18/7 25/17/6
o polygon3.130
v -1.000000 1.500000 -1.000000
v -1.000000 0.000000 -1.000000
v -1.399902 2.300049 0.000000
v -1.399902 0.000000 0.000000
v -1.399902 0.000000 0.000000
v -1.500000 0.000000 0.000000
v -1.399902 2.300049 0.000000
v -1.500000 2.500000 0.000000
v 1.399902 2.300049 0.000000
v 1.500000 2.500000 0.000000
v 1.399902 0.000000 0.000000
v 1.500000 0.000000 0.000000
v 1.000000 0.000000 -1.000000
v 1.000000 1.500000 -1.000000
v 1.399902 0.000000 0.000000
v 1.399902 2.300049 0.000000
vt 0.968750 -0.337891
vt 0.968750 -0.988281
vt 0.292969 0.011719
vt 0.292969 -0.988281
vt 0.230469 -0.988281
vt 0.230469 0.011719
vn -0.928500 0.000000 -0.371300
vn 0.000000 0.000000 -1.000000
vn 0.000000 0.210700 -0.977500
vn -0.000000 0.345300 -0.938500
vn 0.928500 0.000000 -0.371300
usemtl Material1321
s 1
f 27/19/8 28/20/8 29/21/8
f 28/20/8 30/22/8 29/21/8
f 31/22/9 32/23/9 33/21/10
f 32/23/9 34/24/9 33/21/10
f 35/21/11 36/24/9 37/22/9
f 36/24/9 38/23/9 37/22/9
f 39/20/12 40/19/12 41/22/12
f 40/19/12 42/21/12 41/22/12
o polygon0.199
v -1.199951 2.300049 1.000000
v -1.199951 0.300049 1.000000
v 1.199951 2.300049 1.000000
v 1.199951 0.300049 1.000000
vt 0.011719 -0.011719
vt 0.011719 -0.988281
vt 0.988281 -0.011719
vt 0.988281 -0.988281
vn 0.000000 -0.000000 1.000000
usemtl Material1368
s 1
f 43/25/13 44/26/13 45/27/13
f 44/26/13 46/28/13 45/27/13
o polygon1.196
v 1.000000 1.500000 -1.000000
v -1.000000 1.500000 -1.000000
v 1.399902 2.300049 0.000000
v -1.399902 2.300049 0.000000
v -1.500000 2.500000 0.000000
v 1.500000 2.500000 0.000000
v 1.399902 2.300049 0.000000
v -1.500000 2.500000 0.000000
vt 0.171875 -0.976562
vt 0.828125 -0.976562
vt 0.041016 -0.187500
vt 0.958984 -0.187500
vt 0.992188 -0.023438
vt 0.007812 -0.023438
vn -0.000000 0.285000 -0.958500
vn 0.000000 0.569900 -0.821700
vn -0.000000 0.345400 -0.938500
vn 0.000000 0.210700 -0.977500
vn 0.000000 0.000000 -1.000000
vn 0.000000 0.345300 -0.938500
usemtl Material1322.001
s 1
f 47/29/14 48/30/15 49/31/16
f 48/30/15 50/32/17 49/31/16
f 49/31/16 50/32/17 51/33/18
f 52/34/18 53/31/19 54/33/18
